# xmcd
#
# Track frame offsets:
# 150
# 19447
# 41674
# 56543
# 73832
# 95064
# 109264
# 131206
# 151610
# 167117
# 187069
# 205130
#
# Disc length: 3077 seconds
#
# Revision: 1
# Processed by: cddbd v1.5PL3 Copyright (c) Steve Scherf et al.
# Submitted via: Easy CD Ripper v2.27
#
DISCID=b10c030c
DTITLE=Catherine Denise - Treat Me Like A Woman
DYEAR=2000
DGENRE=Blues
TTITLE0=Treat Me Like A Lady
TTITLE1=One Of These Days
TTITLE2=I Don't Want No Man
TTITLE3=Shame Shame Shame
TTITLE4=I Got What It Takes
TTITLE5=You Belong To Me
TTITLE6=Every Little Kiss
TTITLE7=Something 'Bout My Baby
TTITLE8=Rooster Blues
TTITLE9=One Step Closer To Love
TTITLE10=Me And My Guitar
TTITLE11=If You Leave Me
EXTD=
EXTT0=
EXTT1=
EXTT2=
EXTT3=
EXTT4=
EXTT5=
EXTT6=
EXTT7=
EXTT8=
EXTT9=
EXTT10=
EXTT11=
PLAYORDER=
